<mxfile host="app.diagrams.net" agent="Mozilla/5.0 (Windows NT 10.0; Win64; x64) AppleWebKit/537.36 (KHTML, like Gecko) Chrome/126.0.0.0 Safari/537.36" version="24.7.6">
  <diagram name="第 1 页" id="-0JCK4r_XHH6FC-igSx-">
    <mxGraphModel dx="794" dy="454" grid="1" gridSize="10" guides="1" tooltips="1" connect="1" arrows="1" fold="1" page="1" pageScale="1" pageWidth="827" pageHeight="1169" math="0" shadow="0">
      <root>
        <mxCell id="0" />
        <mxCell id="1" parent="0" />
        <mxCell id="fC3G323dH9RH2aXDCVsZ-8" value="" style="rounded=0;whiteSpace=wrap;html=1;" vertex="1" parent="1">
          <mxGeometry x="50" y="90" width="270" height="130" as="geometry" />
        </mxCell>
        <mxCell id="fC3G323dH9RH2aXDCVsZ-1" value="今日客人服务需求" style="text;html=1;align=center;verticalAlign=middle;whiteSpace=wrap;rounded=0;" vertex="1" parent="1">
          <mxGeometry x="90" y="40" width="70" height="30" as="geometry" />
        </mxCell>
        <mxCell id="fC3G323dH9RH2aXDCVsZ-2" value="当前入住" style="text;html=1;align=center;verticalAlign=middle;whiteSpace=wrap;rounded=0;" vertex="1" parent="1">
          <mxGeometry x="60" y="90" width="60" height="30" as="geometry" />
        </mxCell>
        <mxCell id="fC3G323dH9RH2aXDCVsZ-3" value="已退房" style="text;html=1;align=center;verticalAlign=middle;whiteSpace=wrap;rounded=0;" vertex="1" parent="1">
          <mxGeometry x="130" y="90" width="60" height="30" as="geometry" />
        </mxCell>
        <mxCell id="fC3G323dH9RH2aXDCVsZ-4" value="姓名" style="text;html=1;align=center;verticalAlign=middle;whiteSpace=wrap;rounded=0;" vertex="1" parent="1">
          <mxGeometry x="50" y="130" width="60" height="30" as="geometry" />
        </mxCell>
        <mxCell id="fC3G323dH9RH2aXDCVsZ-5" value="性别" style="text;html=1;align=center;verticalAlign=middle;whiteSpace=wrap;rounded=0;" vertex="1" parent="1">
          <mxGeometry x="100" y="130" width="60" height="30" as="geometry" />
        </mxCell>
        <mxCell id="fC3G323dH9RH2aXDCVsZ-6" value="在住/已离" style="text;html=1;align=center;verticalAlign=middle;whiteSpace=wrap;rounded=0;" vertex="1" parent="1">
          <mxGeometry x="260" y="130" width="60" height="30" as="geometry" />
        </mxCell>
        <mxCell id="fC3G323dH9RH2aXDCVsZ-7" value="年龄" style="text;html=1;align=center;verticalAlign=middle;whiteSpace=wrap;rounded=0;" vertex="1" parent="1">
          <mxGeometry x="150" y="130" width="60" height="30" as="geometry" />
        </mxCell>
        <mxCell id="fC3G323dH9RH2aXDCVsZ-9" value="工单列表信息" style="rounded=0;whiteSpace=wrap;html=1;" vertex="1" parent="1">
          <mxGeometry x="330" y="90" width="270" height="130" as="geometry" />
        </mxCell>
        <mxCell id="fC3G323dH9RH2aXDCVsZ-10" value="入住房号" style="text;html=1;align=center;verticalAlign=middle;whiteSpace=wrap;rounded=0;" vertex="1" parent="1">
          <mxGeometry x="200" y="130" width="60" height="30" as="geometry" />
        </mxCell>
        <mxCell id="fC3G323dH9RH2aXDCVsZ-11" value="" style="endArrow=none;html=1;rounded=0;" edge="1" parent="1">
          <mxGeometry width="50" height="50" relative="1" as="geometry">
            <mxPoint x="90" y="320" as="sourcePoint" />
            <mxPoint x="320" y="320" as="targetPoint" />
          </mxGeometry>
        </mxCell>
        <mxCell id="fC3G323dH9RH2aXDCVsZ-12" value="员工服务情况" style="text;html=1;align=center;verticalAlign=middle;whiteSpace=wrap;rounded=0;" vertex="1" parent="1">
          <mxGeometry x="70" y="270" width="90" height="30" as="geometry" />
        </mxCell>
        <mxCell id="fC3G323dH9RH2aXDCVsZ-13" value="工单列表信息" style="rounded=0;whiteSpace=wrap;html=1;" vertex="1" parent="1">
          <mxGeometry x="330" y="280" width="270" height="130" as="geometry" />
        </mxCell>
        <mxCell id="fC3G323dH9RH2aXDCVsZ-14" value="张三" style="text;html=1;align=center;verticalAlign=middle;whiteSpace=wrap;rounded=0;" vertex="1" parent="1">
          <mxGeometry x="30" y="300" width="60" height="30" as="geometry" />
        </mxCell>
        <mxCell id="fC3G323dH9RH2aXDCVsZ-15" value="李四" style="text;html=1;align=center;verticalAlign=middle;whiteSpace=wrap;rounded=0;" vertex="1" parent="1">
          <mxGeometry x="30" y="340" width="60" height="30" as="geometry" />
        </mxCell>
        <mxCell id="fC3G323dH9RH2aXDCVsZ-16" value="" style="endArrow=none;html=1;rounded=0;" edge="1" parent="1">
          <mxGeometry width="50" height="50" relative="1" as="geometry">
            <mxPoint x="90" y="360" as="sourcePoint" />
            <mxPoint x="320" y="360" as="targetPoint" />
          </mxGeometry>
        </mxCell>
        <mxCell id="fC3G323dH9RH2aXDCVsZ-17" value="tabe切换" style="text;html=1;align=center;verticalAlign=middle;whiteSpace=wrap;rounded=0;" vertex="1" parent="1">
          <mxGeometry x="250" y="270" width="60" height="30" as="geometry" />
        </mxCell>
        <mxCell id="fC3G323dH9RH2aXDCVsZ-19" value="" style="rounded=0;whiteSpace=wrap;html=1;" vertex="1" parent="1">
          <mxGeometry x="50" y="470" width="270" height="130" as="geometry" />
        </mxCell>
        <mxCell id="fC3G323dH9RH2aXDCVsZ-20" value="服务来源" style="text;html=1;align=center;verticalAlign=middle;whiteSpace=wrap;rounded=0;" vertex="1" parent="1">
          <mxGeometry x="70" y="430" width="70" height="30" as="geometry" />
        </mxCell>
        <mxCell id="fC3G323dH9RH2aXDCVsZ-23" value="客人" style="text;html=1;align=center;verticalAlign=middle;whiteSpace=wrap;rounded=0;" vertex="1" parent="1">
          <mxGeometry x="50" y="510" width="60" height="30" as="geometry" />
        </mxCell>
        <mxCell id="fC3G323dH9RH2aXDCVsZ-24" value="工单数" style="text;html=1;align=center;verticalAlign=middle;whiteSpace=wrap;rounded=0;" vertex="1" parent="1">
          <mxGeometry x="100" y="510" width="60" height="30" as="geometry" />
        </mxCell>
        <mxCell id="fC3G323dH9RH2aXDCVsZ-25" value="已超时" style="text;html=1;align=center;verticalAlign=middle;whiteSpace=wrap;rounded=0;" vertex="1" parent="1">
          <mxGeometry x="260" y="510" width="60" height="30" as="geometry" />
        </mxCell>
        <mxCell id="fC3G323dH9RH2aXDCVsZ-26" value="已完成" style="text;html=1;align=center;verticalAlign=middle;whiteSpace=wrap;rounded=0;" vertex="1" parent="1">
          <mxGeometry x="150" y="510" width="60" height="30" as="geometry" />
        </mxCell>
        <mxCell id="fC3G323dH9RH2aXDCVsZ-27" value="工单列表信息" style="rounded=0;whiteSpace=wrap;html=1;" vertex="1" parent="1">
          <mxGeometry x="330" y="470" width="270" height="130" as="geometry" />
        </mxCell>
        <mxCell id="fC3G323dH9RH2aXDCVsZ-28" value="未完成" style="text;html=1;align=center;verticalAlign=middle;whiteSpace=wrap;rounded=0;" vertex="1" parent="1">
          <mxGeometry x="200" y="510" width="60" height="30" as="geometry" />
        </mxCell>
        <mxCell id="fC3G323dH9RH2aXDCVsZ-29" value="酒店" style="text;html=1;align=center;verticalAlign=middle;whiteSpace=wrap;rounded=0;" vertex="1" parent="1">
          <mxGeometry x="50" y="540" width="60" height="30" as="geometry" />
        </mxCell>
        <mxCell id="fC3G323dH9RH2aXDCVsZ-30" value="系统" style="text;html=1;align=center;verticalAlign=middle;whiteSpace=wrap;rounded=0;" vertex="1" parent="1">
          <mxGeometry x="50" y="570" width="60" height="30" as="geometry" />
        </mxCell>
      </root>
    </mxGraphModel>
  </diagram>
</mxfile>
